<mxfile host="app.diagrams.net" modified="2023-05-14T01:33:37.839Z" agent="Mozilla/5.0 (Windows NT 10.0; Win64; x64) AppleWebKit/537.36 (KHTML, like Gecko) Chrome/113.0.0.0 Safari/537.36" etag="SdRHobjNkOhK-igK2LSJ" version="21.3.0" type="github">
  <diagram name="페이지-1" id="OSywInEjBNtT1Tl7xHRZ">
    <mxGraphModel dx="1050" dy="581" grid="1" gridSize="10" guides="1" tooltips="1" connect="1" arrows="1" fold="1" page="1" pageScale="1" pageWidth="827" pageHeight="1169" math="0" shadow="0">
      <root>
        <mxCell id="0" />
        <mxCell id="1" parent="0" />
        <mxCell id="WDpUfQrm0MJwAkGcVk79-4" value="이용자" style="shape=umlActor;verticalLabelPosition=bottom;verticalAlign=top;html=1;outlineConnect=0;" vertex="1" parent="1">
          <mxGeometry x="20" y="160" width="30" height="60" as="geometry" />
        </mxCell>
        <mxCell id="WDpUfQrm0MJwAkGcVk79-5" value="게시판서비스" style="shape=umlFrame;whiteSpace=wrap;html=1;pointerEvents=0;width=150;height=30;" vertex="1" parent="1">
          <mxGeometry x="160" y="20" width="550" height="460" as="geometry" />
        </mxCell>
        <mxCell id="WDpUfQrm0MJwAkGcVk79-30" style="edgeStyle=orthogonalEdgeStyle;rounded=0;orthogonalLoop=1;jettySize=auto;html=1;dashed=1;" edge="1" parent="1" source="WDpUfQrm0MJwAkGcVk79-6" target="WDpUfQrm0MJwAkGcVk79-8">
          <mxGeometry relative="1" as="geometry">
            <Array as="points">
              <mxPoint x="510" y="80" />
              <mxPoint x="510" y="80" />
            </Array>
          </mxGeometry>
        </mxCell>
        <mxCell id="WDpUfQrm0MJwAkGcVk79-6" value="로그인" style="ellipse;whiteSpace=wrap;html=1;fillColor=#fff2cc;strokeColor=#d6b656;" vertex="1" parent="1">
          <mxGeometry x="260" y="60" width="140" height="40" as="geometry" />
        </mxCell>
        <mxCell id="WDpUfQrm0MJwAkGcVk79-19" style="rounded=0;orthogonalLoop=1;jettySize=auto;html=1;endArrow=none;endFill=0;" edge="1" parent="1" source="WDpUfQrm0MJwAkGcVk79-7" target="WDpUfQrm0MJwAkGcVk79-4">
          <mxGeometry relative="1" as="geometry">
            <Array as="points">
              <mxPoint x="140" y="170" />
            </Array>
          </mxGeometry>
        </mxCell>
        <mxCell id="WDpUfQrm0MJwAkGcVk79-52" style="edgeStyle=orthogonalEdgeStyle;rounded=0;orthogonalLoop=1;jettySize=auto;html=1;entryX=0.1;entryY=0.379;entryDx=0;entryDy=0;entryPerimeter=0;" edge="1" parent="1" source="WDpUfQrm0MJwAkGcVk79-7" target="WDpUfQrm0MJwAkGcVk79-50">
          <mxGeometry relative="1" as="geometry">
            <Array as="points">
              <mxPoint x="250" y="170" />
            </Array>
          </mxGeometry>
        </mxCell>
        <mxCell id="WDpUfQrm0MJwAkGcVk79-7" value="회원가입" style="ellipse;whiteSpace=wrap;html=1;fillColor=#fff2cc;strokeColor=#d6b656;" vertex="1" parent="1">
          <mxGeometry x="180" y="120" width="140" height="40" as="geometry" />
        </mxCell>
        <mxCell id="WDpUfQrm0MJwAkGcVk79-8" value="인증" style="ellipse;whiteSpace=wrap;html=1;fillColor=#fff2cc;strokeColor=#d6b656;" vertex="1" parent="1">
          <mxGeometry x="540" y="60" width="140" height="40" as="geometry" />
        </mxCell>
        <mxCell id="WDpUfQrm0MJwAkGcVk79-37" style="edgeStyle=orthogonalEdgeStyle;rounded=0;orthogonalLoop=1;jettySize=auto;html=1;dashed=1;exitX=0;exitY=0.5;exitDx=0;exitDy=0;" edge="1" parent="1" source="WDpUfQrm0MJwAkGcVk79-9" target="WDpUfQrm0MJwAkGcVk79-6">
          <mxGeometry relative="1" as="geometry">
            <Array as="points">
              <mxPoint x="360" y="140" />
            </Array>
          </mxGeometry>
        </mxCell>
        <mxCell id="WDpUfQrm0MJwAkGcVk79-38" value="&amp;lt;&amp;lt;extends&amp;gt;&amp;gt;" style="edgeLabel;html=1;align=center;verticalAlign=middle;resizable=0;points=[];" vertex="1" connectable="0" parent="WDpUfQrm0MJwAkGcVk79-37">
          <mxGeometry x="0.0962" y="-4" relative="1" as="geometry">
            <mxPoint x="31" y="4" as="offset" />
          </mxGeometry>
        </mxCell>
        <mxCell id="WDpUfQrm0MJwAkGcVk79-9" value="로그인실패" style="ellipse;whiteSpace=wrap;html=1;fillColor=#fff2cc;strokeColor=#d6b656;" vertex="1" parent="1">
          <mxGeometry x="510" y="120" width="140" height="40" as="geometry" />
        </mxCell>
        <mxCell id="WDpUfQrm0MJwAkGcVk79-42" style="edgeStyle=orthogonalEdgeStyle;rounded=0;orthogonalLoop=1;jettySize=auto;html=1;strokeColor=default;dashed=1;" edge="1" parent="1" source="WDpUfQrm0MJwAkGcVk79-10" target="WDpUfQrm0MJwAkGcVk79-6">
          <mxGeometry relative="1" as="geometry">
            <Array as="points">
              <mxPoint x="330" y="190" />
              <mxPoint x="330" y="190" />
            </Array>
          </mxGeometry>
        </mxCell>
        <mxCell id="WDpUfQrm0MJwAkGcVk79-10" value="게시글목록보기" style="ellipse;whiteSpace=wrap;html=1;fillColor=#fff2cc;strokeColor=#d6b656;" vertex="1" parent="1">
          <mxGeometry x="220" y="220" width="140" height="40" as="geometry" />
        </mxCell>
        <mxCell id="WDpUfQrm0MJwAkGcVk79-43" style="edgeStyle=orthogonalEdgeStyle;rounded=0;orthogonalLoop=1;jettySize=auto;html=1;exitX=1;exitY=0;exitDx=0;exitDy=0;dashed=1;" edge="1" parent="1" source="WDpUfQrm0MJwAkGcVk79-11" target="WDpUfQrm0MJwAkGcVk79-6">
          <mxGeometry relative="1" as="geometry">
            <Array as="points">
              <mxPoint x="370" y="356" />
            </Array>
          </mxGeometry>
        </mxCell>
        <mxCell id="WDpUfQrm0MJwAkGcVk79-11" value="게시글상세보기" style="ellipse;whiteSpace=wrap;html=1;fillColor=#fff2cc;strokeColor=#d6b656;" vertex="1" parent="1">
          <mxGeometry x="300" y="350" width="140" height="40" as="geometry" />
        </mxCell>
        <mxCell id="WDpUfQrm0MJwAkGcVk79-46" style="edgeStyle=orthogonalEdgeStyle;rounded=0;orthogonalLoop=1;jettySize=auto;html=1;entryX=0.963;entryY=0.265;entryDx=0;entryDy=0;entryPerimeter=0;dashed=1;" edge="1" parent="1" source="WDpUfQrm0MJwAkGcVk79-12" target="WDpUfQrm0MJwAkGcVk79-10">
          <mxGeometry relative="1" as="geometry" />
        </mxCell>
        <mxCell id="WDpUfQrm0MJwAkGcVk79-54" value="" style="edgeStyle=orthogonalEdgeStyle;rounded=0;orthogonalLoop=1;jettySize=auto;html=1;endArrow=none;endFill=0;" edge="1" parent="1" source="WDpUfQrm0MJwAkGcVk79-12" target="WDpUfQrm0MJwAkGcVk79-50">
          <mxGeometry relative="1" as="geometry">
            <Array as="points">
              <mxPoint x="740" y="210" />
              <mxPoint x="740" y="210" />
            </Array>
          </mxGeometry>
        </mxCell>
        <mxCell id="WDpUfQrm0MJwAkGcVk79-12" value="게시판검색" style="ellipse;whiteSpace=wrap;html=1;fillColor=#fff2cc;strokeColor=#d6b656;" vertex="1" parent="1">
          <mxGeometry x="530" y="190" width="140" height="40" as="geometry" />
        </mxCell>
        <mxCell id="WDpUfQrm0MJwAkGcVk79-44" style="edgeStyle=orthogonalEdgeStyle;rounded=0;orthogonalLoop=1;jettySize=auto;html=1;dashed=1;" edge="1" parent="1" source="WDpUfQrm0MJwAkGcVk79-15" target="WDpUfQrm0MJwAkGcVk79-10">
          <mxGeometry relative="1" as="geometry" />
        </mxCell>
        <mxCell id="WDpUfQrm0MJwAkGcVk79-55" value="" style="edgeStyle=orthogonalEdgeStyle;rounded=0;orthogonalLoop=1;jettySize=auto;html=1;endArrow=none;endFill=0;" edge="1" parent="1" source="WDpUfQrm0MJwAkGcVk79-15" target="WDpUfQrm0MJwAkGcVk79-50">
          <mxGeometry relative="1" as="geometry">
            <Array as="points">
              <mxPoint x="715" y="270" />
              <mxPoint x="715" y="240" />
            </Array>
          </mxGeometry>
        </mxCell>
        <mxCell id="WDpUfQrm0MJwAkGcVk79-15" value="카테고리검색" style="ellipse;whiteSpace=wrap;html=1;fillColor=#fff2cc;strokeColor=#d6b656;" vertex="1" parent="1">
          <mxGeometry x="530" y="250" width="140" height="40" as="geometry" />
        </mxCell>
        <mxCell id="WDpUfQrm0MJwAkGcVk79-47" style="edgeStyle=orthogonalEdgeStyle;rounded=0;orthogonalLoop=1;jettySize=auto;html=1;dashed=1;" edge="1" parent="1" source="WDpUfQrm0MJwAkGcVk79-16" target="WDpUfQrm0MJwAkGcVk79-11">
          <mxGeometry relative="1" as="geometry" />
        </mxCell>
        <mxCell id="WDpUfQrm0MJwAkGcVk79-16" value="게시글수정과 삭제" style="ellipse;whiteSpace=wrap;html=1;fillColor=#fff2cc;strokeColor=#d6b656;" vertex="1" parent="1">
          <mxGeometry x="530" y="310" width="140" height="40" as="geometry" />
        </mxCell>
        <mxCell id="WDpUfQrm0MJwAkGcVk79-49" style="edgeStyle=orthogonalEdgeStyle;rounded=0;orthogonalLoop=1;jettySize=auto;html=1;entryX=0.5;entryY=1;entryDx=0;entryDy=0;dashed=1;" edge="1" parent="1" source="WDpUfQrm0MJwAkGcVk79-17" target="WDpUfQrm0MJwAkGcVk79-11">
          <mxGeometry relative="1" as="geometry" />
        </mxCell>
        <mxCell id="WDpUfQrm0MJwAkGcVk79-17" value="댓글쓰기" style="ellipse;whiteSpace=wrap;html=1;fillColor=#fff2cc;strokeColor=#d6b656;" vertex="1" parent="1">
          <mxGeometry x="530" y="370" width="140" height="40" as="geometry" />
        </mxCell>
        <mxCell id="WDpUfQrm0MJwAkGcVk79-25" style="rounded=0;orthogonalLoop=1;jettySize=auto;html=1;endArrow=none;endFill=0;entryX=1;entryY=0.3333333333333333;entryDx=0;entryDy=0;entryPerimeter=0;" edge="1" parent="1" target="WDpUfQrm0MJwAkGcVk79-4">
          <mxGeometry relative="1" as="geometry">
            <mxPoint x="260" y="80" as="sourcePoint" />
            <mxPoint x="88" y="94" as="targetPoint" />
            <Array as="points" />
          </mxGeometry>
        </mxCell>
        <mxCell id="WDpUfQrm0MJwAkGcVk79-27" style="rounded=0;orthogonalLoop=1;jettySize=auto;html=1;endArrow=none;endFill=0;" edge="1" parent="1" target="WDpUfQrm0MJwAkGcVk79-4">
          <mxGeometry relative="1" as="geometry">
            <mxPoint x="220" y="243" as="sourcePoint" />
            <mxPoint x="48" y="257" as="targetPoint" />
            <Array as="points">
              <mxPoint x="160" y="230" />
            </Array>
          </mxGeometry>
        </mxCell>
        <mxCell id="WDpUfQrm0MJwAkGcVk79-28" style="rounded=0;orthogonalLoop=1;jettySize=auto;html=1;endArrow=none;endFill=0;entryX=1;entryY=1;entryDx=0;entryDy=0;entryPerimeter=0;" edge="1" parent="1" source="WDpUfQrm0MJwAkGcVk79-11" target="WDpUfQrm0MJwAkGcVk79-4">
          <mxGeometry relative="1" as="geometry">
            <mxPoint x="212" y="330" as="sourcePoint" />
            <mxPoint x="40" y="344" as="targetPoint" />
            <Array as="points">
              <mxPoint x="320" y="360" />
              <mxPoint x="160" y="290" />
            </Array>
          </mxGeometry>
        </mxCell>
        <mxCell id="WDpUfQrm0MJwAkGcVk79-34" value="&amp;lt;&amp;lt;include&amp;gt;&amp;gt;" style="text;html=1;align=center;verticalAlign=middle;resizable=0;points=[];autosize=1;strokeColor=none;fillColor=none;" vertex="1" parent="1">
          <mxGeometry x="414" y="65" width="90" height="30" as="geometry" />
        </mxCell>
        <mxCell id="WDpUfQrm0MJwAkGcVk79-50" value="DBMS" style="html=1;dropTarget=0;whiteSpace=wrap;" vertex="1" parent="1">
          <mxGeometry x="760" y="107.5" width="100" height="165" as="geometry" />
        </mxCell>
        <mxCell id="WDpUfQrm0MJwAkGcVk79-51" value="" style="shape=module;jettyWidth=8;jettyHeight=4;" vertex="1" parent="WDpUfQrm0MJwAkGcVk79-50">
          <mxGeometry x="1" width="20" height="20" relative="1" as="geometry">
            <mxPoint x="-27" y="7" as="offset" />
          </mxGeometry>
        </mxCell>
      </root>
    </mxGraphModel>
  </diagram>
</mxfile>
